<?xml version="1.0" encoding="utf-8"?>
<!-- Generator: Adobe Illustrator 19.2.1, SVG Export Plug-In . SVG Version: 6.00 Build 0)  -->
<svg version="1.1" id="layer" xmlns="http://www.w3.org/2000/svg" xmlns:xlink="http://www.w3.org/1999/xlink" x="0px" y="0px"
	 viewBox="0 0 652 652" style="enable-background:new 0 0 652 652;" xml:space="preserve">
<style type="text/css">
	.st0{fill:#ED1C24;}
	.st1{fill:#FFFFFF;}
</style>
<polygon class="st0" points="311.8,208.5 331.5,172.5 435.1,355.9 275.1,355.9 275.1,357.9 394.4,357.9 414.7,394.7 206.6,394.7 
	287.3,251.8 285.2,250.6 227,354.7 185.1,354.7 288.2,172.5 370.3,316.3 372.2,315.2 "/>
<path class="st1" d="M267.4,307.7c0-23.5,19-42.5,42.5-42.5c23.5,0,42.5,19,42.5,42.5c0,23.5-19,42.5-42.5,42.5
	C286.5,350.2,267.4,331.2,267.4,307.7"/>
<path d="M280.4,298.6c2-1,4.6-1.8,6.9-1.8c6.5,0,12.1,4.3,13.9,10.2l11.3,0l1.8-3.6l12.5,0l2.7,3.9c1.8-0.8,3.5-1.4,5.5-1.4
	c1.6,0,3.1,0.4,4.4,1l0-7.7h-26l-2.7,6.3H304l-10.8-11.6l-10.8,0L280,297L280.4,298.6z M331.6,316c0-1.9,1.5-3.4,3.4-3.4
	s3.4,1.5,3.4,3.4c0,1.9-1.5,3.4-3.4,3.4S331.6,317.9,331.6,316 M332.7,316c0-1.3,1-2.3,2.3-2.3c1.3,0,2.3,1,2.3,2.3
	c0,1.3-1,2.3-2.3,2.3C333.7,318.4,332.7,317.3,332.7,316 M282.4,311.5c0-2.7,2.2-4.9,4.9-4.9c2.7,0,4.9,2.2,4.9,4.9
	s-2.2,4.9-4.9,4.9C284.6,316.4,282.4,314.2,282.4,311.5 M284,311.5c0-1.8,1.5-3.3,3.3-3.3c1.8,0,3.3,1.5,3.3,3.3
	c0,1.8-1.5,3.3-3.3,3.3C285.5,314.8,284,313.3,284,311.5 M341.1,295.9v10.9l1.2,0.6l0.1-10.9L341.1,295.9z M314.6,297.1
	c0,0-1.1-0.1-1.2-1.2c-0.1-1.3,0.4-1.7,1.5-1.7h23.7l1.5,1v1.8H314.6z M329,316c0-3.3,2.7-6,6-6c3.3,0,6,2.7,6,6c0,3.3-2.7,6-6,6
	C331.7,322,329,319.3,329,316 M278.8,311.5c0-4.7,3.8-8.6,8.6-8.6c4.7,0,8.6,3.8,8.6,8.6c0,4.7-3.8,8.6-8.6,8.6
	C282.6,320,278.8,316.2,278.8,311.5 M279,299.5c-3.6,2.7-6.3,7.1-6.3,12c0,8.1,6.5,14.6,14.6,14.6c8,0,14.4-6.3,14.6-14.2h22.6
	l0.7,0.6c-0.4,1.1-0.5,2.4-0.5,3.6c0,5.6,4.6,10.2,10.2,10.2c5.6,0,10.2-4.6,10.2-10.2c0-2.9-0.9-5.3-2.8-7.2l1-0.9v-12.5l-4.5-2.6
	h-11.3v-5.2l-1.4-1.4v-5.5H325v5.2c0,0-0.2,0.2-0.6,0.5c-0.4,0.3-0.9,1.1-0.9,1.1v5.2h-11l-0.7,0.6l-1.2-0.1l-2-2c0,0-0.5-0.1-1.4,0
	c-0.9,0.1-0.3-1.3-0.3-1.3c1.1-2.2,0.3-3.6-1.6-0.9c-1.9,2.6-3.1,5.9-2.4,6.2c0.7,0.3,2.1-2.3,2.1-2.3l1.4-0.3l0.4,0.8l0.9,1.9
	c0.5,1,4.3,3.9,4.3,3.9l-1.9,4.6h-5.5l-3.3-3.9c0,0,0.8-1.6-1-2c-1.9-0.4-1.6-2.6-1.6-2.6l-1.9-0.2l-2.6-2.8H282l-3.7,4.3L279,299.5
	z"/>
<path d="M280.4,298.6c2-1,4.6-1.8,6.9-1.8c6.5,0,12.1,4.3,13.9,10.2l11.3,0l1.8-3.6l12.5,0l2.7,3.9c1.8-0.8,3.5-1.4,5.5-1.4
	c1.6,0,3.1,0.4,4.4,1l0-7.7h-26l-2.7,6.3H304l-10.8-11.6l-10.8,0L280,297L280.4,298.6z M331.6,316c0-1.9,1.5-3.4,3.4-3.4
	s3.4,1.5,3.4,3.4c0,1.9-1.5,3.4-3.4,3.4S331.6,317.9,331.6,316 M332.7,316c0-1.3,1-2.3,2.3-2.3c1.3,0,2.3,1,2.3,2.3
	c0,1.3-1,2.3-2.3,2.3C333.7,318.4,332.7,317.3,332.7,316 M282.4,311.5c0-2.7,2.2-4.9,4.9-4.9c2.7,0,4.9,2.2,4.9,4.9
	s-2.2,4.9-4.9,4.9C284.6,316.4,282.4,314.2,282.4,311.5 M284,311.5c0-1.8,1.5-3.3,3.3-3.3c1.8,0,3.3,1.5,3.3,3.3
	c0,1.8-1.5,3.3-3.3,3.3C285.5,314.8,284,313.3,284,311.5 M341.1,295.9v10.9l1.2,0.6l0.1-10.9L341.1,295.9z M314.6,297.1
	c0,0-1.1-0.1-1.2-1.2c-0.1-1.3,0.4-1.7,1.5-1.7h23.7l1.5,1v1.8H314.6z M329,316c0-3.3,2.7-6,6-6c3.3,0,6,2.7,6,6c0,3.3-2.7,6-6,6
	C331.7,322,329,319.3,329,316 M278.8,311.5c0-4.7,3.8-8.6,8.6-8.6c4.7,0,8.6,3.8,8.6,8.6c0,4.7-3.8,8.6-8.6,8.6
	C282.6,320,278.8,316.2,278.8,311.5 M279,299.5c-3.6,2.7-6.3,7.1-6.3,12c0,8.1,6.5,14.6,14.6,14.6c8,0,14.4-6.3,14.6-14.2h22.6
	l0.7,0.6c-0.4,1.1-0.5,2.4-0.5,3.6c0,5.6,4.6,10.2,10.2,10.2c5.6,0,10.2-4.6,10.2-10.2c0-2.9-0.9-5.3-2.8-7.2l1-0.9v-12.5l-4.5-2.6
	h-11.3v-5.2l-1.4-1.4v-5.5H325v5.2c0,0-0.2,0.2-0.6,0.5c-0.4,0.3-0.9,1.1-0.9,1.1v5.2h-11l-0.7,0.6l-1.2-0.1l-2-2c0,0-0.5-0.1-1.4,0
	c-0.9,0.1-0.3-1.3-0.3-1.3c1.1-2.2,0.3-3.6-1.6-0.9c-1.9,2.6-3.1,5.9-2.4,6.2c0.7,0.3,2.1-2.3,2.1-2.3l1.4-0.3l0.4,0.8l0.9,1.9
	c0.5,1,4.3,3.9,4.3,3.9l-1.9,4.6h-5.5l-3.3-3.9c0,0,0.8-1.6-1-2c-1.9-0.4-1.6-2.6-1.6-2.6l-1.9-0.2l-2.6-2.8H282l-3.7,4.3L279,299.5
	z"/>
<polygon class="st1" points="329.3,392 329.3,376.5 327.2,376.5 330.3,370.2 338.6,370.2 338.6,385.7 344.7,385.7 341.9,392 
	330.2,392 "/>
<polygon class="st1" points="308,369.6 318.1,369.6 319.1,368.5 326.2,368.5 323.1,376.6 319.3,376.6 319.3,391.4 309.7,391.4 
	309.7,376.5 305.7,376.6 "/>
<polygon class="st1" points="275.9,391.9 275.9,376.4 273.8,376.4 276.9,370.2 284.3,370.2 290.3,374.6 296.3,370.2 303.8,370.2 
	303.8,391.9 294.8,391.9 294.8,380.7 290.2,384.5 285.2,381.2 285.2,391.9 "/>
<polygon points="255.7,433.9 270,433.9 281,468.6 270.2,468.9 268.3,462.4 258.6,462.4 256.6,468.6 246.7,468.6 254.3,442.9 
	252.1,442.9 "/>
<path d="M332.2,451.4c0-9.9,8.1-18,18-18s18,8.1,18,18c0,10-8.1,18-18,18S332.2,461.4,332.2,451.4"/>
<polygon points="125.4,434.7 139.7,434.7 150.7,469.5 139.9,469.7 138,463.2 128.3,463.2 126.3,469.5 116.4,469.5 124,443.7 
	121.8,443.7 "/>
<polygon points="22.7,469.7 22.7,444.7 20.2,444.7 23.9,434.6 32.6,434.6 39.7,441.7 46.7,434.6 55.5,434.6 55.5,469.6 45,469.6 
	45,451.6 39.6,457.7 33.7,452.4 33.7,469.6 "/>
<polygon points="61.3,469.7 61.3,444.8 58.9,444.8 62.6,434.7 72.3,434.7 72.3,469.7 "/>
<polygon points="76.4,469.7 76.4,444.8 74,444.8 77.6,434.7 87.3,434.7 87.3,459.6 94.6,459.6 91.3,469.7 77.5,469.7 "/>
<polygon points="97.1,469.7 97.1,444.8 94.7,444.8 98.3,434.7 108,434.7 108,459.6 115.3,459.6 112,469.7 98.2,469.7 "/>
<polygon class="st1" points="130.9,455.1 135.7,455.1 133.5,447.3 "/>
<polygon points="151.8,434.6 163.7,434.6 164.9,432.7 173.3,432.7 169.6,445.8 165.2,445.8 165.2,469.6 153.9,469.6 153.9,445.7 
	149.1,445.8 "/>
<polygon class="st1" points="261.2,454.3 266,454.3 263.8,446.5 "/>
<polygon points="195,433.7 206.9,433.7 208.1,431.9 216.5,431.9 212.8,444.9 208.4,444.9 208.4,468.8 197.1,468.8 197.1,444.8 
	192.3,444.9 "/>
<polygon points="313.2,433.7 325.1,433.7 326.3,431.9 334.7,431.9 331,444.9 326.6,444.9 326.6,468.8 315.3,468.8 315.3,444.8 
	310.4,444.9 "/>
<path d="M370.4,468.9v-25H368l3.6-10.1l8.8-0.1c4.1,0,9.6,1,12.6,4.2c8.2,8.8-0.2,18.5-2.6,19.7c-0.5,0.3,7.9,11.3,7.9,11.3h-12.6
	l-5.3-9.3v9.3L370.4,468.9z"/>
<path class="st1" d="M380.5,443.1c0,0,3-0.8,5.2,0.8c2.6,1.8,1.2,6.7-1.7,7.3c-2.7,0.5-3.5,0-3.5,0V443.1z"/>
<path d="M218.1,468.9v-25h-2.4l3.6-10.1l8.8-0.1c4.1,0,9.6,1,12.6,4.2c8.2,8.8-0.2,18.5-2.6,19.7c-0.5,0.3,7.9,11.3,7.9,11.3h-12.6
	l-5.3-9.3v9.3L218.1,468.9z"/>
<path class="st1" d="M228.1,443.1c0,0,3-0.8,5.2,0.8c2.6,1.8,1.2,6.7-1.7,7.3c-2.7,0.5-3.5,0-3.5,0V443.1z"/>
<path class="st1" d="M342.8,451.6c0-4.2,3.4-7.6,7.6-7.6c4.2,0,7.6,3.4,7.6,7.6c0,4.2-3.4,7.6-7.6,7.6
	C346.2,459.2,342.8,455.8,342.8,451.6"/>
<path d="M280.3,451.4c0-9.9,8.1-18,18-18c4.4,0,8.5,1.6,11.6,4.3l-5.4,9.5c-1.4-1.9-3.6-3.1-6.1-3.1c-4.2,0-7.6,3.4-7.6,7.6
	c0,4.2,3.4,7.6,7.6,7.6c2.4,0,4.6-1.2,6-3l5.8,8.7c-3.2,2.8-7.4,4.5-11.9,4.5C288.4,469.4,280.3,461.4,280.3,451.4"/>
<path d="M421.5,443.1l2.7-7.4c-13.4-7.1-21.4-1-22.7,7c-1,6.3,3.4,9.8,9.2,11.4c8.5,2.3,4,10.2-3.2,6.1c-2.4-0.9-4.3-2.7-4.3-2.7
	l-2.7,7c0,0,6.6,7.2,15.6,4.7c10.3-2.8,8.4-12.9,7.4-14.9c-0.9-2-3.9-6-9.7-7.6C406,444.5,412.6,436.2,421.5,443.1"/>
<polygon points="471.1,469.7 471.1,444.8 468.7,444.8 472.3,434.7 482.1,434.7 482.1,469.7 "/>
<polygon points="450.4,469.7 450.4,444.8 447.9,444.8 451.6,434.7 461.3,434.7 461.3,459.6 468.5,459.6 465.3,469.7 451.5,469.7 "/>
<polygon points="526.1,469.7 526.1,444.8 523.7,444.8 527.3,434.7 537,434.7 537,469.7 "/>
<polygon points="542.4,434.6 554.3,434.6 555.5,432.7 563.9,432.7 560.2,445.7 555.8,445.7 555.8,469.6 544.5,469.6 544.5,445.7 
	539.7,445.7 "/>
<polygon points="487.9,469.7 487.9,444.7 485.5,444.7 489.1,434.6 497.8,434.6 504.9,441.7 512,434.6 520.8,434.6 520.8,469.6 
	510.3,469.6 510.3,451.6 504.8,457.7 498.9,452.4 498.9,469.6 "/>
<polygon points="572.6,434.6 580.3,434.6 581.8,432.7 588.2,432.7 585.6,441.9 585,443.9 577,443.9 577,447.5 587.6,447.5 
	585,454.6 577,454.6 577,459.6 588.1,459.6 584.8,469.7 567.2,469.7 566.1,469.7 566.1,444.8 563.6,444.8 567.3,434.7 572.6,434.7 
	"/>
<path d="M592.4,469.7v-25H590l3.6-10.1h5.4l0.4,0l2.4,0h1.5c8.4,0.7,15.9,4.9,16.8,16.2c0.8,9.8-6.1,19.5-21.4,18.8
	C594.9,469.8,592.4,469.7,592.4,469.7"/>
<path class="st1" d="M602.4,445.1c0,0,7.5-1.3,8.4,7.4c0.6,5.4-4.4,8.2-8.5,7.8C602.3,457.4,602.4,445.1,602.4,445.1"/>
</svg>
