<svg version="1.2" xmlns="http://www.w3.org/2000/svg" viewBox="0 0 1566 1392" width="1566" height="1392">
	<title>millat-tractors-limited-logo-vector-svg</title>
	<style>
		.s0 { fill: #ed1c24 } 
		.s1 { fill: #ffffff } 
		.s2 { fill: #000000 } 
	</style>
	<path id="Layer" class="s0" d="m793.8 226.1l123.3-225.3 648.4 1147.9h-1001.3v12.5h746.6l127 230.3h-1302.3l505-894.4-13.1-7.5-364.3 651.6h-262.2l645.2-1140.4 513.8 900 11.9-6.9z"/>
	<path id="Layer" class="s1" d="m781.9 1113c-147 0-265.9-118.9-265.9-266 0-147.1 118.9-266 265.9-266 147.1 0 266 118.9 266 266 0 147.1-118.9 266-266 266z"/>
	<path id="Layer" fill-rule="evenodd" class="s2" d="m584.2 778.1l23.1-26.9h76.4l16.3 17.6 11.8 1.2c0 0-1.8 13.8 10.1 16.3 11.2 2.5 6.2 12.5 6.2 12.5l20.7 24.4h34.4l11.9-28.8c0 0-23.8-18.1-26.9-24.4l-5.7-11.9-2.5-5-8.7 1.9c0 0-8.8 16.3-13.2 14.4-4.3-1.9 3.2-22.6 15.1-38.8 11.8-16.9 16.9-8.2 10 5.6 0 0-3.8 8.8 1.8 8.1 5.7-0.6 8.8 0 8.8 0l12.5 12.6 7.5 0.6 4.4-3.8h68.9v-32.5c0 0 3.1-5 5.6-6.9 2.5-1.9 3.7-3.1 3.7-3.1v-32.6h6.9v34.4l8.8 8.8v32.6h70.7l28.2 16.2v78.3l-6.3 5.6c11.9 11.9 17.5 26.9 17.5 45.1 0 35-28.8 63.8-63.8 63.8-35 0-63.8-28.8-63.8-63.8 0-7.5 0.6-15.7 3.1-22.6l-4.4-3.7h-141.4c-1.3 49.4-41.3 88.9-91.4 88.9-50.7 0-91.4-40.7-91.4-91.4 0-30.7 16.9-58.2 39.5-75.1zm392.4 120.8c0-20.8-16.8-37.6-37.6-37.6-20.8 0-37.5 16.8-37.5 37.6 0 20.7 16.7 37.5 37.5 37.5 20.8 0 37.6-16.8 37.6-37.5zm-37.6 21.2c-11.8 0-21.3-9.5-21.3-21.2 0-11.8 9.5-21.3 21.3-21.3 11.8 0 21.3 9.5 21.3 21.3 0 11.7-9.5 21.2-21.3 21.2zm-244.1-49.4c0-29.8-24-53.8-53.8-53.8-29.8 0-53.8 24-53.8 53.8 0 29.8 24 53.8 53.8 53.8 29.8 0 53.8-24 53.8-53.8zm-54.4 30.7c-17 0-30.7-13.7-30.7-30.7 0-17 13.7-30.7 30.7-30.7 16.9 0 30.7 13.7 30.7 30.7 0 17-13.8 30.7-30.7 30.7zm336.7-128.3v68.2l7.5 3.7 0.6-68.2zm-165.8 6.9h159.6v-11.3l-9.4-6.2h-148.3c-6.9 0-10.1 2.5-9.4 10.6 0.6 6.9 7.5 7.5 7.5 7.5zm142 119c0-8-6.4-14.5-14.4-14.5-7.9 0-14.4 6.5-14.4 14.5 0 7.9 6.5 14.4 14.4 14.4 8 0 14.4-6.5 14.4-14.4zm-292.2-28.2c0-11.4-9.3-20.7-20.7-20.7-11.4 0-20.6 9.3-20.6 20.7 0 11.4 9.2 20.6 20.6 20.6 11.4 0 20.7-9.2 20.7-20.6zm-63.9-80.8c12.6-6.2 28.8-11.2 43.2-11.2 40.7 0 75.7 26.9 87 63.8h70.7l11.3-22.5h78.2l16.9 24.4c11.3-5 21.9-8.8 34.4-8.8 10.1 0 19.4 2.5 27.6 6.3v-48.2h-162.7l-16.9 39.4h-42l-67.6-72.6h-67.5l-15.1 19.4z"/>
	<path id="Layer" fill-rule="evenodd" class="s2" d="m584.2 778.1l23.1-26.9h76.4l16.3 17.6 11.8 1.2c0 0-1.8 13.8 10.1 16.3 11.2 2.5 6.2 12.5 6.2 12.5l20.7 24.4h34.4l11.9-28.8c0 0-23.8-18.1-26.9-24.4l-5.7-11.9-2.5-5-8.7 1.9c0 0-8.8 16.3-13.2 14.4-4.3-1.9 3.2-22.6 15.1-38.8 11.8-16.9 16.9-8.2 10 5.6 0 0-3.8 8.8 1.8 8.1 5.7-0.6 8.8 0 8.8 0l12.5 12.6 7.5 0.6 4.4-3.8h68.9v-32.5c0 0 3.1-5 5.6-6.9 2.5-1.9 3.7-3.1 3.7-3.1v-32.6h6.9v34.4l8.8 8.8v32.6h70.7l28.2 16.2v78.3l-6.3 5.6c11.9 11.9 17.5 26.9 17.5 45.1 0 35-28.8 63.8-63.8 63.8-35 0-63.8-28.8-63.8-63.8 0-7.5 0.6-15.7 3.1-22.6l-4.4-3.7h-141.4c-1.3 49.4-41.3 88.9-91.4 88.9-50.7 0-91.4-40.7-91.4-91.4 0-30.7 16.9-58.2 39.5-75.1zm392.4 120.8c0-20.8-16.8-37.6-37.6-37.6-20.8 0-37.5 16.8-37.5 37.6 0 20.7 16.7 37.5 37.5 37.5 20.8 0 37.6-16.8 37.6-37.5zm-37.6 21.2c-11.8 0-21.3-9.5-21.3-21.2 0-11.8 9.5-21.3 21.3-21.3 11.8 0 21.3 9.5 21.3 21.3 0 11.7-9.5 21.2-21.3 21.2zm-244.1-49.4c0-29.8-24-53.8-53.8-53.8-29.8 0-53.8 24-53.8 53.8 0 29.8 24 53.8 53.8 53.8 29.8 0 53.8-24 53.8-53.8zm-54.4 30.7c-17 0-30.7-13.7-30.7-30.7 0-17 13.7-30.7 30.7-30.7 16.9 0 30.7 13.7 30.7 30.7 0 17-13.8 30.7-30.7 30.7zm336.7-128.3v68.2l7.5 3.7 0.6-68.2zm-165.8 6.9h159.6v-11.3l-9.4-6.2h-148.3c-6.9 0-10.1 2.5-9.4 10.6 0.6 6.9 7.5 7.5 7.5 7.5zm142 119c0-8-6.4-14.5-14.4-14.5-7.9 0-14.4 6.5-14.4 14.5 0 7.9 6.5 14.4 14.4 14.4 8 0 14.4-6.5 14.4-14.4zm-292.2-28.2c0-11.4-9.3-20.7-20.7-20.7-11.4 0-20.6 9.3-20.6 20.7 0 11.4 9.2 20.6 20.6 20.6 11.4 0 20.7-9.2 20.7-20.6zm-63.9-80.8c12.6-6.2 28.8-11.2 43.2-11.2 40.7 0 75.7 26.9 87 63.8h70.7l11.3-22.5h78.2l16.9 24.4c11.3-5 21.9-8.8 34.4-8.8 10.1 0 19.4 2.5 27.6 6.3v-48.2h-162.7l-16.9 39.4h-42l-67.6-72.6h-67.5l-15.1 19.4z"/>
	<path id="Layer" class="s1" d="m903.4 1374.6v-97h-13.2l19.4-39.4h52v97h38.1l-17.5 39.4h-73.2z"/>
	<path id="Layer" class="s1" d="m770.1 1234.4h63.2l6.2-6.9h44.5l-19.4 50.7h-23.8v92.7h-60.1v-93.3l-25 0.6z"/>
	<path id="Layer" class="s1" d="m569.2 1374v-97h-13.2l19.4-38.8h46.3l37.6 27.5 37.5-27.5h47v135.8h-56.4v-70.1l-28.7 23.8-31.3-20.7v67z"/>
</svg>